# xmcd
#
# Track frame offsets:
#	150
#	14758
#	30925
#	52758
#	67612
#	82815
#	97913
#	111312
#	126124
#	143268
#	159582
#	173739
#	187545
#	197397
#	210061
#	223138
#	234766
#	246513
#	258317
#	270655
#	281331
#	293723
#	307189
#	320892
#
# Disc length: 4456 seconds
#
# Revision: 1
# Processed by: cddbd v1.5.2PL0 Copyright (c) Steve Scherf et al.
# Submitted via: audiograbber 1.83.01
#
DISCID=39116618
DTITLE=John Lee Hooker - 16 Original Albums and Bonus Tracks, CD1: Burning Hell /
DTITLE=I'm John Lee Hooker
DYEAR=1958
DGENRE=Blues
TTITLE0=Burning Hell
TTITLE1=Graveyard Blues
TTITLE2=Baby, Please Don't Go
TTITLE3=Jackson, Tennessee
TTITLE4=You Live Your Life And I'll Live Mine
TTITLE5=Smokestack Lightnin'
TTITLE6=How Can You Do It?
TTITLE7=I Don't Want No Woman If Her Hair Ain't No Longer Than Mine (Short-Hair
TTITLE7=ed Woman)
TTITLE8=I Rolled And Turned And Cried The Whole Night Long
TTITLE9=Blues For My Baby
TTITLE10=Key To The Highway
TTITLE11=Natchez Fire (Burnin')
TTITLE12=Dimples
TTITLE13=Hobo Blues
TTITLE14=I'm So Excited
TTITLE15=I Love You Honey
TTITLE16=Boogie Chillun
TTITLE17=Little Wheel
TTITLE18=I'm In The Mood
TTITLE19=Maudie
TTITLE20=Crawlin Kingsnake
TTITLE21=Every Night
TTITLE22=Time Is Marching
TTITLE23=Baby Lee
EXTD=Tracks 1-12: Burning Hell\nTracks 13-24: I'm John Lee Hooker
EXTT0=
EXTT1=
EXTT2=
EXTT3=
EXTT4=
EXTT5=
EXTT6=
EXTT7=
EXTT8=
EXTT9=
EXTT10=
EXTT11=
EXTT12=
EXTT13=
EXTT14=
EXTT15=
EXTT16=
EXTT17=
EXTT18=
EXTT19=
EXTT20=
EXTT21=
EXTT22=
EXTT23=
PLAYORDER=
